<svg width="31" height="30" viewBox="0 0 31 30" fill="none" xmlns="http://www.w3.org/2000/svg">
<rect x="0.0273438" y="0.00549316" width="30" height="30" rx="6" fill="#BE4D4D"/>
<path d="M22.08 24.7027L19.155 21.8027L16.955 24.0027L16.255 23.3027C15.8717 22.9194 15.68 22.4444 15.68 21.8777C15.68 21.3111 15.8717 20.8361 16.255 20.4527L20.48 16.2277C20.8634 15.8444 21.3384 15.6527 21.905 15.6527C22.4717 15.6527 22.9467 15.8444 23.33 16.2277L24.03 16.9277L21.83 19.1277L24.73 22.0527C24.93 22.2527 25.03 22.4861 25.03 22.7527C25.03 23.0194 24.93 23.2527 24.73 23.4527L23.48 24.7027C23.28 24.9027 23.0467 25.0027 22.78 25.0027C22.5134 25.0027 22.28 24.9027 22.08 24.7027ZM25.03 9.00275L13.68 20.3527L13.805 20.4527C14.1884 20.8361 14.38 21.3111 14.38 21.8777C14.38 22.4444 14.1884 22.9194 13.805 23.3027L13.105 24.0027L10.905 21.8027L7.98003 24.7027C7.78003 24.9027 7.5467 25.0027 7.28003 25.0027C7.01336 25.0027 6.78003 24.9027 6.58003 24.7027L5.33003 23.4527C5.13003 23.2527 5.03003 23.0194 5.03003 22.7527C5.03003 22.4861 5.13003 22.2527 5.33003 22.0527L8.23003 19.1277L6.03003 16.9277L6.73003 16.2277C7.11336 15.8444 7.58836 15.6527 8.15503 15.6527C8.7217 15.6527 9.1967 15.8444 9.58003 16.2277L9.68003 16.3527L21.03 5.00275L25.03 5.00275L25.03 9.00275ZM9.98003 13.9527L5.03003 9.00275L5.03003 5.00275L9.03003 5.00275L13.98 9.95275L9.98003 13.9527Z" fill="white"/>
</svg>
