<svg width="30" height="30" viewBox="0 0 30 30" fill="none" xmlns="http://www.w3.org/2000/svg">
<rect y="0.00549316" width="30" height="30" rx="6" fill="#AFBEB7"/>
<path d="M17.0005 3.00238C18.1051 3.00218 19.0007 3.89745 19.0009 5.00202L19.0016 9.00202C19.0018 10.1066 19.8974 11.0019 21.002 11.0016L25.002 11.0009C26.1065 11.0007 27.0021 11.896 27.0023 13.0006L27.0031 17.0006C27.0033 18.1051 26.108 19.0007 25.0034 19.0009L21.0034 19.0016C19.8988 19.0019 19.0036 19.8974 19.0038 21.002L19.0045 25.002C19.0047 26.1066 18.1095 27.0022 17.0049 27.0024L13.0049 27.0031C11.9003 27.0033 11.0047 26.1081 11.0045 25.0035L11.0038 21.0035C11.0036 19.8989 10.108 19.0036 9.00342 19.0038L5.00342 19.0046C3.89885 19.0048 3.00325 18.1095 3.00305 17.0049L3.00232 13.0049C3.00212 11.9004 3.89738 11.0048 5.00195 11.0046L9.00195 11.0038C10.1065 11.0036 11.0018 10.108 11.0016 9.00348L11.0009 5.00348C11.0007 3.89891 11.8959 3.00332 13.0005 3.00311L17.0005 3.00238Z" fill="white"/>
</svg>
